<?xml version="1.0" standalone="no"?>
<!DOCTYPE svg PUBLIC "-//W3C//DTD SVG 20010904//EN"
 "http://www.w3.org/TR/2001/REC-SVG-20010904/DTD/svg10.dtd">
<svg version="1.0" xmlns="http://www.w3.org/2000/svg"
 width="1284.000000pt" height="1280.000000pt" viewBox="0 0 1284.000000 1280.000000"
 preserveAspectRatio="xMidYMid meet">

<g transform="translate(0.000000,1280.000000) scale(0.100000,-0.100000)"
fill="#000000" stroke="none">
<path d="M5115 8229 c-615 -308 -1124 -564 -1132 -570 -11 -9 -13 -213 -13
-1138 l0 -1126 22 -14 c12 -8 520 -263 1129 -567 l1107 -554 46 17 c25 10 46
21 46 25 0 4 7 8 15 8 15 0 55 19 65 31 3 3 37 20 75 38 39 18 77 37 85 42 8
5 26 14 40 20 51 21 152 73 156 81 3 4 13 8 22 8 9 0 28 9 42 20 14 11 31 20
38 20 8 0 26 9 41 19 15 11 47 27 72 37 24 10 46 20 49 23 11 12 111 61 124
61 8 0 21 6 28 13 16 16 159 87 175 87 6 0 13 4 15 8 4 10 130 72 145 72 6 0
16 6 22 14 7 8 23 17 38 21 14 3 32 13 40 20 8 8 26 18 41 21 15 4 39 15 54
25 14 11 32 19 40 19 8 0 18 4 24 9 15 16 324 171 339 171 7 0 20 6 27 13 16
16 159 87 175 87 6 0 13 3 15 8 4 9 125 72 139 72 40 0 39 -22 39 1150 0 884
-3 1124 -12 1134 -7 7 -78 45 -158 84 -80 40 -156 78 -170 86 -14 8 -52 28
-85 44 -33 16 -73 37 -90 46 -16 9 -36 16 -42 16 -7 0 -13 4 -13 8 0 5 -18 14
-40 21 -21 6 -42 16 -45 22 -6 8 -50 30 -162 80 -18 7 -33 17 -33 21 0 5 -5 8
-11 8 -9 0 -326 156 -447 219 -9 5 -44 23 -77 39 -33 16 -73 37 -90 46 -16 9
-35 16 -42 16 -6 0 -13 3 -15 8 -1 4 -37 24 -78 44 -41 20 -206 102 -366 181
l-291 145 -1118 -559z m788 -144 c34 -30 38 -98 7 -138 -22 -28 -15 -39 33
-51 37 -9 34 -21 -17 -68 -44 -40 -44 -41 -39 -94 4 -37 2 -54 -6 -54 -6 0
-11 18 -11 46 l0 47 -35 -6 c-26 -4 -45 0 -70 15 -45 26 -46 46 -2 44 17 0 32
4 32 9 0 6 -6 9 -14 7 -9 -2 -12 2 -7 13 3 9 2 14 -3 11 -4 -3 -16 1 -26 8
-23 16 -56 9 -48 -10 3 -8 0 -14 -6 -14 -19 0 -13 50 7 56 38 12 46 22 48 58
0 20 6 42 12 48 7 7 12 21 12 31 0 16 5 18 29 14 29 -6 61 15 61 41 0 18 12
14 43 -13z m-162 -349 c5 -6 29 -11 53 -11 36 -2 43 1 39 14 -2 9 3 5 11 -9
10 -17 15 -51 16 -102 0 -71 -2 -78 -20 -78 -17 0 -20 -6 -19 -47 0 -27 3 -78
8 -115 4 -38 4 -68 0 -68 -12 0 -20 44 -26 148 -4 74 -10 105 -19 109 -9 3
-14 21 -14 45 0 23 4 37 10 33 6 -3 10 -19 10 -36 0 -16 2 -29 4 -29 2 0 10
-2 18 -5 10 -4 14 7 15 40 2 39 0 45 -17 45 -11 0 -29 9 -40 20 -11 11 -29 20
-40 20 -16 0 -20 7 -20 33 0 40 14 59 18 25 2 -12 8 -27 13 -32z m158 -161 c1
-42 51 -181 73 -205 11 -11 17 -24 13 -29 -7 -12 37 -81 50 -77 5 1 13 20 18
42 10 51 23 66 75 93 51 26 56 37 6 16 -45 -19 -44 -19 -44 5 0 11 -7 20 -15
20 -19 0 -70 49 -61 58 4 3 10 2 14 -4 13 -19 86 -64 104 -64 25 0 82 33 86
49 1 7 -1 23 -4 35 -7 21 -8 20 -16 -4 -6 -20 -7 -18 -3 9 3 18 5 52 6 75 l1
41 13 -40 c8 -22 14 -63 14 -92 1 -41 5 -55 20 -63 25 -13 68 -13 76 0 10 16
106 62 113 55 4 -4 -17 -28 -47 -54 -49 -44 -53 -49 -41 -70 10 -20 17 -22 48
-17 86 15 94 14 37 -5 -65 -21 -77 -33 -69 -65 4 -15 0 -23 -14 -26 -16 -5
-20 -18 -25 -88 -7 -102 12 -144 78 -175 17 -9 36 -29 44 -47 33 -79 45 -100
73 -130 l29 -31 39 38 38 38 76 -38 c42 -21 79 -42 82 -47 4 -5 -5 -22 -19
-36 -20 -23 -23 -32 -16 -57 14 -50 -5 -91 -57 -115 -52 -26 -63 -43 -71 -113
-7 -54 -14 -66 -51 -86 -16 -8 -21 -18 -17 -34 3 -12 10 -65 15 -117 5 -52 12
-115 16 -139 6 -38 3 -46 -19 -65 -25 -20 -27 -28 -33 -136 -4 -63 -10 -120
-15 -125 -4 -6 -4 -17 1 -25 6 -8 10 -25 10 -36 0 -12 6 -26 13 -32 9 -8 12
-29 9 -70 -4 -58 -4 -59 32 -80 29 -17 35 -26 33 -51 -2 -29 -5 -31 -57 -38
-77 -11 -572 -5 -584 7 -6 6 -28 10 -51 10 -40 0 -75 14 -64 25 4 3 19 1 34
-5 16 -6 34 -9 41 -6 29 11 115 199 98 215 -6 6 -44 -30 -44 -42 0 -17 -41
-67 -51 -62 -5 4 -2 19 6 36 19 36 3 39 -29 4 -13 -14 -25 -25 -28 -25 -7 0
-25 70 -27 104 -1 24 1 26 14 16 9 -8 12 -22 8 -41 -5 -26 9 -42 19 -21 2 4
25 18 52 31 76 39 120 79 126 113 6 35 13 41 95 64 72 21 110 55 95 84 -21 39
46 110 103 110 9 0 28 5 44 11 27 10 27 11 8 22 -26 14 -61 47 -50 47 4 0 23
-11 41 -25 43 -33 54 -32 98 8 29 27 36 41 36 70 0 23 -5 37 -12 37 -10 0 -10
2 0 8 15 10 7 38 -14 46 -12 5 -14 -1 -8 -32 4 -20 12 -43 18 -51 8 -11 8 -13
-1 -7 -9 5 -13 0 -13 -18 0 -14 -4 -27 -8 -30 -17 -10 -30 11 -29 49 0 92 -27
240 -43 230 -4 -3 -10 4 -13 14 -3 14 -1 18 9 14 16 -6 16 -4 5 54 l-8 42 29
-21 c20 -14 26 -23 18 -28 -9 -5 -9 -13 -1 -27 5 -11 8 -23 5 -25 -2 -3 2 -36
10 -73 13 -63 32 -93 48 -77 9 10 -2 62 -14 62 -5 0 -6 9 -3 21 4 11 2 33 -4
47 -5 15 -12 42 -15 61 -3 19 -9 37 -14 40 -31 20 -72 55 -72 63 0 5 10 0 22
-12 12 -11 25 -20 30 -20 17 0 6 21 -32 62 -35 37 -42 41 -50 27 -5 -9 -26
-36 -45 -59 -23 -27 -35 -52 -35 -71 0 -16 -6 -32 -14 -35 -12 -5 -28 -151
-30 -281 -1 -18 -5 -33 -9 -33 -4 0 -7 -10 -5 -22 2 -23 -14 -93 -32 -136 -12
-28 -34 -18 -25 12 3 11 10 59 15 106 5 47 12 105 16 129 5 32 4 42 -4 37 -7
-4 -12 -16 -12 -26 0 -13 -5 -17 -15 -14 -24 10 -75 -52 -75 -91 0 -19 -8 -39
-20 -50 -11 -10 -17 -22 -13 -27 3 -6 1 -13 -4 -17 -13 -8 -69 -181 -66 -203
2 -11 -4 -18 -13 -18 -14 0 -16 8 -10 52 4 29 16 77 26 107 11 30 18 57 15 59
-9 10 -90 -45 -93 -63 -2 -11 -10 -35 -18 -52 -32 -70 -64 -165 -65 -191 0
-15 -3 -21 -6 -13 -7 19 16 151 27 151 16 0 15 45 -1 63 -10 10 -19 31 -22 45
-6 31 8 119 22 136 19 24 34 95 23 109 -13 16 -4 59 32 146 14 36 26 70 26 77
0 7 7 17 17 22 12 7 16 24 16 73 0 60 1 62 12 35 12 -27 13 -28 19 -9 7 22
-11 73 -25 73 -12 0 -55 -69 -70 -112 -10 -31 -10 -42 1 -62 11 -22 9 -33 -21
-101 -24 -52 -35 -69 -37 -55 -2 12 1 26 6 33 5 7 13 27 17 45 3 17 11 32 16
32 13 0 11 27 -3 49 -8 14 -8 29 0 62 7 28 8 47 2 53 -6 6 -10 19 -9 31 0 19
1 19 11 -2 10 -22 12 -21 39 20 30 46 63 82 125 138 21 20 48 47 60 60 11 13
29 30 40 36 10 7 35 23 55 37 20 13 53 29 73 36 45 15 42 33 -8 41 -28 5 -42
1 -59 -14 -12 -10 -66 -51 -120 -89 -89 -64 -167 -139 -167 -160 0 -5 -8 -8
-17 -6 -12 2 -25 -15 -45 -62 -28 -63 -31 -107 -13 -152 4 -10 3 -18 -2 -18
-5 0 -15 16 -21 36 -9 29 -8 51 4 103 9 36 19 68 23 71 3 3 14 17 23 32 15 23
15 28 3 38 -8 7 -15 20 -15 28 0 13 3 12 15 -4 13 -16 16 -17 25 -4 22 32 25
35 41 45 8 6 36 24 62 40 26 17 67 42 92 57 47 28 58 53 28 62 -23 8 -121 96
-106 96 6 0 18 -6 25 -12 7 -7 33 -26 58 -43 25 -16 48 -34 51 -39 4 -5 15 -6
25 -2 16 6 15 9 -11 22 -17 8 -48 31 -70 50 -24 21 -30 31 -17 24 31 -15 37
-8 12 15 -11 10 -33 18 -50 19 -16 1 -30 4 -30 9 0 4 -7 7 -15 7 -20 0 -19
-10 3 -27 16 -13 15 -14 -5 -8 -25 7 -31 -9 -10 -22 22 -13 28 -43 13 -71 -20
-39 -71 -88 -106 -102 -26 -11 -30 -18 -30 -51 0 -21 -5 -41 -11 -45 -8 -4
-10 12 -8 53 3 49 0 63 -19 87 -12 16 -22 37 -22 47 0 10 -18 30 -41 46 -38
27 -40 30 -36 71 3 25 13 53 26 66 11 12 21 27 21 33 0 6 7 16 15 23 8 7 15
26 15 42 0 26 2 29 15 18 8 -7 15 -22 15 -34 0 -12 6 -30 13 -40 12 -16 15
-15 40 23 15 22 21 38 14 35 -23 -8 -41 43 -38 105 1 23 2 24 21 6 23 -21 25
-9 6 37 -30 73 -44 149 -36 208 3 22 18 -30 19 -65z m-11 -110 c-3 -3 -9 2
-12 12 -6 14 -5 15 5 6 7 -7 10 -15 7 -18z m546 -201 c9 -3 16 -10 16 -15 0
-14 -26 -10 -40 6 -13 16 -3 20 24 9z m-254 -1064 c0 -5 -4 -10 -10 -10 -5 0
-10 5 -10 10 0 6 5 10 10 10 6 0 10 -4 10 -10z m-190 -402 c0 -18 -2 -20 -9
-8 -6 8 -7 18 -5 22 9 14 14 9 14 -14z m-110 -257 c0 -5 -12 -16 -26 -26 -34
-22 -64 -53 -64 -65 0 -6 16 -10 35 -8 19 1 38 -1 42 -6 4 -4 -15 -6 -42 -4
-43 3 -50 6 -53 25 -2 16 9 31 45 57 50 37 63 42 63 27z"/>
<path d="M5860 8067 c0 -8 -11 -24 -24 -36 -22 -21 -24 -21 -30 -4 -7 17 -9
16 -27 -6 -10 -13 -19 -36 -19 -51 0 -24 5 -30 32 -35 19 -5 34 -3 35 2 2 6
14 8 27 6 30 -6 62 33 44 54 -8 10 -7 13 6 13 9 0 16 5 16 10 0 6 -9 10 -20
10 -15 0 -20 7 -20 25 0 14 -4 25 -10 25 -5 0 -10 -6 -10 -13z m20 -97 c0 -5
-5 -10 -11 -10 -5 0 -7 5 -4 10 3 6 8 10 11 10 2 0 4 -4 4 -10z"/>
<path d="M5893 7863 c9 -2 23 -2 30 0 6 3 -1 5 -18 5 -16 0 -22 -2 -12 -5z"/>
<path d="M5830 7850 c0 -5 5 -10 11 -10 5 0 7 5 4 10 -3 6 -8 10 -11 10 -2 0
-4 -4 -4 -10z"/>
<path d="M6340 7440 c-8 -5 -10 -10 -5 -10 6 0 17 5 25 10 8 5 11 10 5 10 -5
0 -17 -5 -25 -10z"/>
<path d="M6225 7422 c6 -6 24 -13 40 -17 21 -4 25 -3 15 3 -24 15 -67 26 -55
14z"/>
<path d="M6130 7362 c-22 -11 -35 -24 -35 -37 0 -35 34 -29 75 14 37 37 38 41
17 41 -12 0 -38 -8 -57 -18z"/>
<path d="M6243 7361 c-2 -19 22 -40 60 -54 22 -8 22 11 -1 39 -25 31 -57 39
-59 15z"/>
<path d="M5918 7353 c7 -3 16 -2 19 1 4 3 -2 6 -13 5 -11 0 -14 -3 -6 -6z"/>
<path d="M6175 7305 c-16 -14 -36 -25 -42 -25 -8 0 -13 -14 -13 -35 0 -46 41
-111 74 -117 14 -3 23 -1 20 3 -3 5 6 9 20 9 14 0 26 5 26 10 0 6 9 19 20 30
24 24 29 100 6 100 -8 0 -24 11 -37 25 -30 31 -36 30 -74 0z"/>
<path d="M5961 7271 c-6 -11 -11 -26 -11 -33 0 -15 -52 -72 -86 -95 -28 -18
-52 -7 -56 25 l-3 27 -17 -34 c-10 -19 -18 -44 -18 -55 0 -26 39 -54 50 -36 5
9 9 9 14 1 12 -18 54 -13 77 10 20 20 20 21 2 35 -10 8 -13 14 -8 13 6 -1 20
2 33 6 17 6 22 13 19 26 -3 11 0 19 7 19 18 0 35 42 29 73 -7 36 -19 42 -32
18z"/>
<path d="M6068 7215 c-6 -30 -3 -43 8 -33 3 4 4 19 2 35 l-3 28 -7 -30z"/>
<path d="M5830 7195 c0 -27 9 -32 27 -14 9 9 8 15 -2 25 -19 20 -25 17 -25
-11z"/>
<path d="M6186 7075 c21 -19 43 -35 48 -35 13 1 -63 70 -77 70 -5 0 8 -16 29
-35z"/>
<path d="M6285 7060 c10 -11 23 -20 28 -20 6 0 0 9 -13 20 -13 11 -25 20 -28
20 -3 0 3 -9 13 -20z"/>
<path d="M5916 7039 c-11 -10 -30 -19 -43 -19 -29 0 -31 -32 -3 -60 25 -25 41
-25 69 1 31 29 45 68 30 85 -15 19 -30 17 -53 -7z"/>
<path d="M6398 6965 c-3 -3 -3 -34 -1 -68 5 -62 -1 -83 -74 -254 -3 -7 0 -13
6 -13 14 0 45 36 47 53 3 33 5 37 22 37 11 0 27 -9 37 -20 20 -22 44 -28 26
-6 -6 7 -8 21 -5 30 7 18 -9 57 -36 90 -14 18 -14 19 8 14 20 -6 22 -2 22 28
0 26 -3 32 -15 28 -8 -4 -15 -1 -15 5 0 6 5 11 10 11 6 0 10 6 10 13 -1 17
-34 59 -42 52z"/>
<path d="M6320 6911 c0 -6 7 -11 16 -11 11 0 14 -6 8 -22 -3 -13 -11 -25 -16
-26 -5 -2 -4 -10 2 -17 8 -9 8 -15 0 -20 -5 -3 -10 0 -10 7 0 26 -30 -32 -56
-108 -14 -44 -32 -91 -40 -106 -8 -16 -15 -45 -17 -67 -1 -26 -6 -37 -14 -34
-8 3 -13 -4 -13 -20 0 -14 -3 -27 -7 -29 -8 -3 -25 -37 -59 -113 -10 -22 -22
-43 -27 -46 -5 -4 -6 -16 -2 -29 6 -18 12 -20 33 -15 41 10 46 21 21 44 -18
16 -19 21 -7 21 9 0 18 -7 22 -15 8 -22 33 -18 62 8 18 17 27 40 35 87 5 36
16 97 24 135 7 39 16 91 20 117 3 25 15 64 25 86 21 44 56 160 49 166 -12 11
-49 16 -49 7z"/>
<path d="M6266 6878 c-8 -19 -22 -40 -30 -47 -11 -9 -13 -22 -9 -44 6 -29 5
-31 -10 -18 -15 11 -18 10 -27 -13 -5 -14 -13 -26 -18 -26 -10 0 -42 -53 -64
-105 -9 -22 -21 -39 -27 -37 -6 1 -14 -11 -17 -28 -4 -16 -10 -30 -15 -30 -5
0 -9 -7 -9 -15 0 -7 -6 -18 -13 -22 -6 -4 -18 -21 -26 -38 -7 -16 -18 -39 -23
-49 -23 -44 -48 -138 -43 -159 4 -15 -7 -57 -29 -115 -39 -100 -44 -133 -21
-152 12 -10 15 -9 15 5 0 25 46 82 72 91 33 10 78 46 78 61 0 16 19 51 44 81
17 20 18 22 3 22 -9 0 -17 4 -17 10 0 5 -6 7 -14 4 -8 -3 -12 -13 -9 -23 2 -9
-3 -23 -11 -30 -9 -8 -16 -20 -16 -27 0 -8 -4 -14 -10 -14 -5 0 -10 -9 -10
-19 0 -11 -4 -23 -10 -26 -15 -9 -12 25 6 78 15 45 15 48 -6 82 -12 20 -19 39
-15 43 4 4 10 2 12 -4 2 -6 11 -20 19 -30 15 -18 15 -18 11 9 -3 18 0 27 9 27
8 0 14 6 14 14 0 24 27 68 35 57 9 -16 25 -3 18 14 -3 8 -1 15 4 15 6 0 18 18
28 40 14 31 16 43 7 52 -7 7 -12 17 -12 22 0 6 5 5 12 -2 7 -7 15 -12 19 -12
12 0 19 60 9 88 -9 24 -8 25 4 10 7 -10 16 -18 18 -18 6 0 21 54 23 86 1 11 9
36 18 54 10 18 17 46 17 62 0 15 4 28 8 28 10 0 36 70 28 77 -3 3 -12 -10 -20
-29z m-97 -308 c0 -10 -3 -8 -9 5 -12 27 -12 43 0 25 5 -8 9 -22 9 -30z"/>
<path d="M6620 6825 c-10 -11 -9 -18 4 -30 24 -24 19 -29 -9 -11 -23 15 -26
15 -31 1 -4 -8 0 -23 7 -33 13 -15 12 -16 -3 -4 -14 11 -18 10 -27 -5 -6 -13
-6 -24 1 -34 8 -11 9 -11 4 4 -6 20 7 23 23 3 9 -11 9 -15 -1 -18 -10 -4 -10
-8 1 -21 10 -13 10 -17 1 -17 -6 0 -20 10 -30 23 -10 12 -22 19 -26 14 -4 -4
3 -19 17 -35 l24 -27 -27 24 c-33 29 -50 21 -22 -11 10 -12 13 -18 7 -14 -10
5 -13 -9 -13 -58 0 -37 4 -66 10 -66 6 0 10 6 10 13 0 7 14 29 30 47 17 18 30
40 30 47 0 21 52 93 94 131 20 18 36 36 36 40 0 8 -74 52 -88 52 -5 0 -15 -7
-22 -15z"/>
<path d="M6177 6823 c-4 -3 -7 -11 -7 -17 0 -6 5 -5 12 2 6 6 9 14 7 17 -3 3
-9 2 -12 -2z"/>
<path d="M6486 6797 c4 -13 44 -41 44 -32 0 8 -34 45 -42 45 -4 0 -5 -6 -2
-13z"/>
<path d="M6146 6791 c-4 -7 -5 -15 -2 -18 9 -9 19 4 14 18 -4 11 -6 11 -12 0z"/>
<path d="M6105 6760 c-11 -17 5 -32 21 -19 7 6 11 15 8 20 -7 12 -21 11 -29
-1z"/>
<path d="M6062 6717 l-22 -24 21 -19 c20 -18 20 -18 14 11 -4 20 -3 26 3 17 7
-11 10 -10 16 3 15 41 0 46 -32 12z"/>
<path d="M6692 6680 c-6 -11 -12 -26 -12 -34 0 -8 -6 -16 -12 -18 -8 -3 -5 -9
9 -16 19 -10 25 -9 43 10 23 25 24 32 10 59 -13 24 -22 24 -38 -1z"/>
<path d="M6025 6653 c9 -37 25 -53 25 -26 0 29 -10 53 -22 53 -6 0 -7 -11 -3
-27z"/>
<path d="M6568 6433 c-10 -2 -18 -11 -18 -19 0 -12 3 -12 20 -2 11 7 20 16 20
20 0 5 -1 7 -2 7 -2 -1 -11 -3 -20 -6z"/>
<path d="M6076 6344 c-4 -14 -5 -28 -3 -31 3 -2 8 8 11 23 4 14 5 28 3 31 -3
2 -8 -8 -11 -23z"/>
<path d="M6500 6040 c-12 -8 -12 -10 2 -15 19 -7 38 1 38 16 0 12 -21 11 -40
-1z"/>
<path d="M6462 6014 c4 -20 34 -41 44 -31 4 4 -2 16 -14 27 -26 24 -35 25 -30
4z"/>
<path d="M6397 5986 c-7 -18 24 -31 35 -14 12 20 9 28 -11 28 -10 0 -21 -6
-24 -14z"/>
<path d="M6450 5962 c0 -12 5 -22 10 -22 6 0 10 -6 9 -12 -3 -25 1 -39 10 -33
5 3 12 -3 14 -12 3 -10 5 -3 6 15 1 22 -7 41 -24 60 -25 26 -25 26 -25 4z"/>
<path d="M6325 5951 c-3 -5 -1 -12 5 -16 5 -3 10 1 10 9 0 18 -6 21 -15 7z"/>
<path d="M6370 5935 c0 -14 2 -25 4 -25 2 0 11 -3 19 -6 19 -7 31 24 16 42
-18 22 -39 16 -39 -11z"/>
<path d="M6309 5887 c-8 -17 -33 -41 -55 -53 -36 -20 -40 -26 -46 -75 -4 -30
-11 -74 -17 -98 -5 -25 -8 -49 -5 -53 3 -4 0 -8 -5 -8 -6 0 -11 -7 -11 -15 0
-8 -3 -15 -7 -15 -5 0 -16 -18 -27 -40 -24 -50 -46 -60 -46 -20 0 16 4 32 10
35 12 7 61 110 59 122 -1 4 0 15 4 23 10 28 15 100 6 100 -4 0 -14 -7 -21 -17
-7 -9 -32 -35 -55 -57 -34 -34 -41 -46 -36 -68 7 -35 -52 -165 -79 -174 -37
-12 -10 -29 58 -37 38 -5 123 -6 189 -3 66 3 158 5 205 5 l85 0 -42 38 c-23
21 -51 46 -63 56 -12 10 -19 21 -16 24 3 3 37 -22 76 -56 50 -43 79 -61 98
-60 25 0 25 1 8 12 -53 34 -106 79 -105 90 0 9 2 9 6 0 7 -18 33 -16 33 2 0 8
-6 15 -12 15 -10 0 -9 3 1 9 17 11 7 42 -20 59 -29 18 -35 8 -15 -23 17 -25
17 -26 -4 -13 -17 11 -22 11 -29 -1 -17 -27 -23 12 -22 155 2 126 0 143 -14
138 -9 -4 -15 -1 -15 7 -1 9 -4 8 -11 -4 -15 -25 -15 -283 0 -301 9 -10 8 -15
-3 -19 -8 -3 -16 -16 -18 -28 -6 -45 -25 -30 -35 28 -12 67 -10 124 7 245 14
101 11 119 -11 75z m-44 -137 c17 -18 17 -20 2 -14 -14 5 -17 0 -18 -27 -1
-19 -1 -41 0 -49 1 -21 -16 -46 -26 -36 -4 5 -3 10 2 12 6 2 9 32 7 69 -4 69
3 78 33 45z m-31 -166 c4 -9 4 -19 2 -21 -8 -8 -26 8 -26 23 0 19 16 18 24 -2z"/>
<path d="M6457 5775 c-7 -101 -4 -120 19 -129 12 -5 13 5 8 59 -5 46 -3 65 5
65 18 0 13 59 -7 81 -19 19 -19 17 -25 -76z"/>
<path d="M6550 5485 c7 -8 19 -15 27 -15 13 0 13 3 3 15 -7 8 -19 15 -27 15
-13 0 -13 -3 -3 -15z"/>
<path d="M4067 3733 c-4 -3 -7 -14 -7 -24 0 -17 50 -39 88 -39 9 0 12 -46 12
-195 0 -217 6 -243 63 -303 114 -119 368 -124 486 -9 62 60 71 101 71 319 0
144 3 188 13 188 6 0 29 5 50 11 30 8 37 15 37 35 l0 25 -142 -3 c-138 -3
-143 -4 -146 -25 -3 -23 28 -39 86 -42 18 -1 17 -370 -2 -414 -37 -87 -163
-124 -261 -77 -51 25 -62 45 -75 135 -11 82 -13 325 -2 341 4 6 23 15 42 19
46 10 59 21 53 45 -5 19 -15 20 -182 20 -98 0 -181 -3 -184 -7z"/>
<path d="M5410 3645 l0 -95 34 0 c31 0 34 3 45 43 18 69 30 79 97 75 l59 -3 0
-250 0 -250 -42 -9 c-43 -9 -57 -24 -47 -51 5 -13 35 -15 184 -15 149 0 179 2
184 15 10 27 -4 42 -47 51 l-42 9 -3 253 -2 252 65 0 c44 0 67 -4 69 -12 3 -7
12 -34 22 -60 15 -44 19 -48 51 -48 l34 0 -3 93 -3 92 -327 3 -328 2 0 -95z"/>
<path d="M6237 3726 c-11 -28 3 -43 44 -49 23 -3 43 -7 45 -10 7 -6 6 -486 -1
-496 -3 -5 -23 -12 -44 -16 -40 -7 -55 -23 -45 -50 5 -13 35 -15 184 -15 166
0 178 1 183 19 7 28 -4 38 -45 46 -20 4 -38 12 -40 18 -2 7 -2 54 0 105 3 68
7 92 17 92 14 0 61 -69 153 -224 l34 -57 126 3 127 3 0 25 c0 22 -6 26 -48 34
-42 7 -52 14 -74 50 -15 22 -48 74 -75 114 -26 41 -48 75 -48 77 0 1 15 9 33
16 117 49 145 185 55 265 -56 51 -97 58 -344 62 -204 3 -232 2 -237 -12z m389
-72 c44 -21 64 -50 64 -91 0 -71 -35 -105 -123 -118 l-47 -7 0 116 0 116 36 0
c20 0 51 -7 70 -16z"/>
<path d="M7114 3725 c-10 -24 4 -45 28 -45 13 0 33 -3 46 -6 l22 -6 -2 -251
-3 -251 -45 -11 c-38 -9 -45 -15 -45 -35 l0 -25 181 -3 c172 -2 182 -1 187 17
7 27 -3 37 -48 47 l-40 10 -3 251 -2 252 37 7 c48 8 62 20 56 44 -5 19 -15 20
-184 20 -150 0 -181 -2 -185 -15z"/>
<path d="M7672 3713 c2 -19 10 -29 23 -31 11 -1 30 -5 43 -8 l22 -4 -2 -253
-3 -252 -42 -9 c-39 -8 -43 -12 -43 -38 l0 -28 198 2 197 3 0 25 c0 23 -5 26
-60 35 l-60 11 0 79 0 80 35 3 c139 10 247 53 288 115 52 79 28 197 -51 246
-65 40 -143 51 -352 51 l-196 0 3 -27z m370 -59 c53 -27 67 -53 68 -116 0 -49
-4 -62 -27 -88 -17 -19 -44 -35 -68 -40 -79 -19 -75 -26 -75 125 l0 135 35 0
c20 0 50 -7 67 -16z"/>
<path d="M5044 3376 c-3 -8 -4 -27 -2 -43 l3 -28 95 -3 c131 -4 140 -1 140 48
l0 40 -115 0 c-91 0 -117 -3 -121 -14z"/>
<path d="M5527 2883 c-4 -3 -7 -91 -7 -195 l0 -188 34 0 c66 0 66 1 66 124 l0
111 20 -25 c11 -14 50 -67 87 -117 l66 -93 49 0 48 0 -2 193 -3 192 -45 0 -45
0 -5 -119 -5 -120 -20 37 c-11 20 -23 37 -27 37 -4 0 -14 13 -22 28 -12 24
-40 61 -96 130 -11 13 -82 17 -93 5z"/>
<path d="M5950 2877 c0 -7 9 -23 20 -35 11 -12 20 -24 20 -28 0 -5 14 -24 75
-102 5 -7 16 -19 23 -27 7 -9 12 -45 12 -100 l0 -86 48 3 47 3 6 85 c5 91 12
115 35 124 8 3 14 10 14 16 0 6 6 18 13 25 36 42 87 113 87 124 0 15 -87 14
-100 -1 -6 -7 -29 -39 -51 -70 -22 -32 -44 -58 -48 -58 -4 0 -23 21 -41 48
-19 26 -37 49 -40 52 -4 3 -9 13 -13 23 -5 13 -18 17 -57 17 -35 0 -50 -4 -50
-13z"/>
<path d="M6505 2876 c-38 -16 -102 -87 -111 -121 -3 -14 -4 -52 -2 -83 7 -100
80 -167 192 -179 72 -7 153 30 184 86 24 43 19 53 -30 65 -22 5 -30 1 -49 -26
-30 -43 -38 -48 -80 -48 -58 0 -98 18 -105 48 -3 15 -8 35 -11 44 -7 29 8 107
26 129 18 22 84 35 126 25 14 -4 31 -18 37 -31 11 -25 32 -30 76 -19 12 4 22
12 22 19 0 22 -52 77 -87 91 -41 18 -148 17 -188 0z"/>
</g>
</svg>
